<svg width="572" height="111" viewBox="0 0 572 111" fill="none" xmlns="http://www.w3.org/2000/svg">
<path d="M121.24 28.184L103.448 108.952H70.936L62.36 69.784C61.848 67.48 61.208 64.664 60.696 61.72C60.184 64.664 59.672 67.48 59.16 69.784L50.584 108.952H18.072L0.28 28.184H25.496L32.792 66.072C34.2 73.88 35.608 81.432 36.888 89.24L49.176 28.184H72.344L84.632 89.24C85.912 81.432 87.32 73.88 88.728 66.072L96.024 28.184H121.24ZM149.553 77.464V77.976C149.553 87.192 157.105 91.928 165.553 91.928C174.769 91.928 180.273 89.752 180.273 85.656V83.224H205.361V86.936C205.361 100.504 188.465 110.744 165.553 110.744C142.129 110.744 124.465 96.664 124.465 76.696V61.336C124.465 40.088 142.129 26.392 165.553 26.392C188.977 26.392 206.641 40.088 206.641 61.336V77.464H149.553ZM166.833 32.408C166.065 46.616 151.729 51.864 139.569 52.12C152.113 52.504 166.833 58.776 166.833 72.984C166.833 58.776 180.529 52.376 192.945 51.992C180.913 51.736 167.473 46.616 166.833 32.408ZM240.708 32.408L251.716 29.592C264.26 26.52 274.372 28.44 280.772 34.968C286.276 32.408 292.42 30.232 297.54 29.208C321.22 24.728 336.708 34.584 336.708 58.136V108.952H311.62V60.696C311.62 50.456 306.116 47 296.9 49.304L288.196 51.608C288.452 53.656 288.708 55.832 288.708 58.136V108.952H263.62V60.696C263.62 50.456 258.628 46.488 249.54 49.176L240.708 51.736V108.952H215.62V28.184H240.708V32.408ZM376.703 110.616C359.295 110.616 345.215 102.424 345.215 87.064C345.215 70.936 354.431 61.08 380.543 58.136L399.743 55.96V54.168C399.743 47.768 394.111 45.336 385.663 45.336C377.471 45.336 372.863 48.536 372.863 52.888V54.168H347.775V51.608C347.775 37.784 362.495 26.904 385.663 26.904C407.807 26.904 424.831 38.296 424.831 54.168V108.952H401.023V104.344C396.287 107.8 386.559 110.616 376.703 110.616ZM384.383 61.592C383.743 73.624 372.735 83.48 360.703 83.992C372.991 84.504 384.383 95 384.383 106.648C384.383 95 395.647 84.376 407.935 83.864C396.031 83.352 384.895 73.624 384.383 61.592ZM483.873 88.472V108.952H472.737C449.441 108.952 443.169 93.208 443.169 74.776V48.792H431.905V28.312H443.169V0.535995H468.257V28.312H483.873V48.792H468.257V76.568C468.257 84.888 471.969 88.472 478.113 88.472H483.873ZM514.053 77.464V77.976C514.053 87.192 521.605 91.928 530.053 91.928C539.269 91.928 544.773 89.752 544.773 85.656V83.224H569.861V86.936C569.861 100.504 552.965 110.744 530.053 110.744C506.629 110.744 488.965 96.664 488.965 76.696V61.336C488.965 40.088 506.629 26.392 530.053 26.392C553.477 26.392 571.141 40.088 571.141 61.336V77.464H514.053ZM531.333 32.408C530.565 46.616 516.229 51.864 504.069 52.12C516.613 52.504 531.333 58.776 531.333 72.984C531.333 58.776 545.029 52.376 557.445 51.992C545.413 51.736 531.973 46.616 531.333 32.408Z" fill="#836FFF"/>
</svg>
